<?xml version="1.0" standalone="no"?>
<!DOCTYPE svg PUBLIC "-//W3C//DTD SVG 20010904//EN"
 "http://www.w3.org/TR/2001/REC-SVG-20010904/DTD/svg10.dtd">
<svg version="1.0" xmlns="http://www.w3.org/2000/svg"
 width="226.000000pt" height="208.000000pt" viewBox="0 0 226.000000 208.000000"
 preserveAspectRatio="xMidYMid meet">

<g transform="translate(0.000000,208.000000) scale(0.100000,-0.100000)"
fill="#000000" stroke="none">
<path d="M1152 2053 c-20 -10 -41 -31 -50 -52 -21 -45 -29 -51 -72 -51 -45 0
-98 -27 -124 -63 -28 -39 -30 -170 -2 -211 9 -15 16 -29 14 -31 -2 -2 -76 -7
-166 -11 -164 -7 -164 -7 -173 -32 -12 -31 -3 -98 17 -129 13 -21 22 -23 99
-23 l85 0 0 -37 c0 -88 -16 -82 234 -86 l221 -2 -245 -3 c-149 -1 -260 2 -283
9 -28 8 -42 7 -53 -2 -21 -18 -18 -73 7 -95 18 -16 20 -28 17 -76 -4 -56 -4
-58 26 -69 l31 -12 -47 -6 c-55 -8 -60 -11 -48 -31 7 -11 10 -12 10 -2 0 11
30 12 153 7 83 -3 181 -8 216 -11 l64 -6 -7 -56 c-4 -31 -10 -60 -14 -64 -4
-3 -61 0 -127 7 -66 7 -159 16 -207 20 l-87 7 -4 31 -4 32 -1 -32 c-1 -18 -7
-33 -13 -33 -5 0 -7 -4 -4 -10 3 -5 43 -10 88 -10 96 -1 157 -13 173 -35 7 -9
14 -12 15 -7 2 5 133 13 292 16 l287 8 0 -50 c0 -27 -3 -63 -6 -79 l-6 -30
-181 -7 c-100 -3 -226 -9 -280 -12 -97 -7 -98 -6 -104 17 -5 19 -7 20 -12 6
-5 -14 -18 -9 -81 33 -41 27 -80 53 -86 59 -7 5 -15 7 -18 3 -4 -3 37 -35 91
-70 l98 -63 190 6 c105 4 237 10 295 14 l105 6 3 88 c2 65 -1 88 -10 91 -7 3
-26 8 -43 12 -25 6 -13 10 65 21 134 20 140 23 140 77 0 46 9 56 55 56 19 0
24 7 29 38 3 20 2 53 -2 72 -8 35 -9 35 -57 32 -27 -1 -61 3 -77 10 -23 11
-28 19 -28 50 0 26 5 38 18 41 9 3 -16 5 -55 6 -40 0 -73 4 -73 9 0 4 -142 6
-315 4 l-315 -3 -11 27 c-5 15 -7 40 -4 56 l7 28 314 0 c173 0 314 -3 314 -8
0 -4 18 -6 40 -4 37 4 58 22 25 22 -12 0 -15 14 -15 66 0 63 1 65 23 59 14 -5
18 -4 12 2 -5 5 -76 20 -156 32 l-147 23 23 34 c53 78 35 197 -39 256 l-21 17
22 16 c23 16 63 75 63 94 0 17 -70 13 -108 -6z m88 -6 c0 -22 -59 -85 -90 -95
-37 -13 -37 -9 -5 24 35 35 31 39 -11 13 l-36 -22 15 30 c24 46 127 87 127 50z
m-35 -141 c39 -42 57 -106 45 -159 -12 -57 -17 -54 -12 8 5 57 -10 77 -22 30
-19 -77 -137 -142 -234 -130 -44 5 -54 11 -67 35 -22 43 -20 147 5 188 22 36
67 62 78 45 4 -5 18 -16 31 -23 20 -10 34 -9 83 6 38 11 54 20 46 26 -10 6
-10 8 1 8 7 0 28 -15 46 -34z m-64 -293 l2 -28 4 26 4 26 152 -24 c84 -12 155
-23 160 -23 4 0 7 -29 7 -65 l0 -66 -32 5 c-18 3 -90 8 -160 12 l-128 6 -1 32
c-2 28 -2 29 -6 4 -4 -24 -9 -27 -61 -32 -31 -3 -150 -8 -264 -12 -201 -6
-206 -6 -217 14 -16 29 -14 122 2 123 45 4 451 26 490 28 45 1 47 0 48 -26z
m399 -331 c0 -39 0 -39 -46 -46 -26 -3 -78 -6 -115 -6 l-69 0 0 38 c0 21 2 41
6 44 3 3 54 6 115 7 l109 2 0 -39z m-713 -14 c-3 -7 -5 -2 -5 12 0 14 2 19 5
13 2 -7 2 -19 0 -25z m36 12 c-3 -11 -7 -20 -8 -20 -1 0 -5 9 -8 20 -3 12 0
20 8 20 8 0 11 -8 8 -20z m32 -5 c0 -14 -3 -25 -7 -25 -5 0 -8 11 -8 25 0 14
3 25 8 25 4 0 7 -11 7 -25z m46 11 c5 3 9 -1 9 -8 0 -9 3 -9 10 2 9 13 11 13
20 0 5 -8 10 -17 10 -20 0 -8 -44 -5 -57 3 -6 4 -14 1 -16 -5 -3 -7 -6 -4 -6
8 -1 23 12 41 17 25 2 -6 8 -9 13 -5z m66 -23 c-3 -10 -5 -4 -5 12 0 17 2 24
5 18 2 -7 2 -21 0 -30z m-204 7 c3 -11 1 -18 -4 -14 -5 3 -9 12 -9 20 0 20 7
17 13 -6z m238 3 c1 -17 2 -17 6 0 7 26 79 24 86 -3 4 -15 0 -20 -15 -20 -12
0 -17 4 -12 12 5 7 3 8 -5 4 -7 -5 -25 -10 -40 -12 -22 -4 -30 0 -34 16 -3 11
-1 20 4 20 5 0 10 -8 10 -17z m-28 -40 c-23 -2 -64 -2 -90 0 -26 2 -7 3 42 3
50 0 71 -1 48 -3z m-205 -28 c8 -3 12 -26 12 -70 0 -36 -1 -65 -2 -65 -2 0
-30 9 -63 19 l-60 19 -3 56 -3 57 53 -6 c29 -4 59 -8 66 -10z m662 -5 c-87
-10 -473 -10 -435 0 17 4 136 7 265 7 153 0 212 -3 170 -7z m-432 -37 c-19 -5
-25 -43 -8 -43 6 0 10 5 10 10 0 6 5 10 10 10 6 0 10 -7 10 -15 0 -20 -49 -20
-56 0 -8 19 13 45 35 44 13 -1 13 -2 -1 -6z m60 0 c-21 -5 -24 -23 -5 -23 8 0
8 -3 -2 -9 -11 -7 -10 -10 5 -14 16 -4 16 -5 -3 -6 -19 -1 -23 4 -23 29 0 25
4 30 23 29 16 -1 18 -2 5 -6z m80 -5 c9 -9 12 -9 12 0 0 7 12 11 28 11 23 -2
24 -2 5 -6 -26 -5 -33 -43 -8 -43 9 0 12 6 9 15 -4 8 -1 15 5 15 6 0 11 -9 11
-20 0 -22 -28 -28 -47 -9 -8 8 -13 8 -17 0 -10 -16 -41 -13 -56 4 -25 30 30
61 58 33z m116 3 c4 -5 2 -20 -3 -33 -6 -12 -10 -17 -10 -9 -1 11 -4 11 -16 1
-13 -11 -15 -8 -15 19 0 24 4 31 19 31 11 0 22 -4 25 -9z m56 -17 c6 -14 10
-26 10 -27 0 -1 -13 -2 -29 -3 -28 -1 -28 0 -19 27 12 36 26 37 38 3z m90 16
c0 -14 27 -12 33 3 3 6 6 -4 6 -23 0 -28 -2 -32 -10 -17 -5 9 -14 17 -19 17
-6 0 -10 -8 -10 -17 -1 -16 -2 -16 -13 -2 -12 16 -37 14 -49 -5 -4 -6 -8 4 -8
22 0 30 2 32 35 32 19 0 35 -4 35 -10z m70 -1 c0 -8 5 -8 15 1 18 15 20 0 2
-24 -12 -17 -14 -16 -25 8 -7 16 -8 26 -2 26 6 0 10 -5 10 -11z m-232 -76
c-32 -2 -86 -2 -120 0 -35 2 -9 3 57 3 66 0 94 -1 63 -3z m212 -18 c-80 -14
-293 -29 -273 -19 13 6 270 32 318 32 17 -1 -4 -6 -45 -13z m-362 -12 c-32 -2
-84 -2 -115 0 -32 2 -6 3 57 3 63 0 89 -1 58 -3z m330 -31 c-22 -4 -24 -32 -2
-32 8 0 12 5 9 10 -3 6 -1 10 5 10 7 0 10 -6 7 -12 -2 -7 -15 -13 -30 -13 -14
0 -29 -3 -33 -7 -13 -13 -32 -9 -38 8 -10 26 11 41 57 41 23 0 34 -2 25 -5z
m54 -14 c-2 -10 -6 -18 -8 -18 -2 0 -8 8 -13 18 -7 14 -6 18 8 18 12 0 17 -6
13 -18z m-186 1 c4 -8 9 -7 15 2 6 10 9 8 9 -8 0 -12 6 -24 13 -27 6 -4 2 -4
-10 -2 -13 2 -25 1 -28 -4 -2 -4 -22 -7 -44 -7 -28 0 -41 4 -44 16 -2 9 -3 6
-2 -6 1 -14 -3 -23 -12 -23 -10 0 -13 9 -11 28 3 24 7 27 40 27 21 1 40 4 44
8 10 10 22 9 30 -4z"/>
<path d="M1141 1564 c0 -11 3 -14 6 -6 3 7 2 16 -1 19 -3 4 -6 -2 -5 -13z"/>
<path d="M1130 1140 c0 -11 7 -20 15 -20 8 0 15 9 15 20 0 11 -7 20 -15 20 -8
0 -15 -9 -15 -20z"/>
<path d="M1265 1150 c3 -5 8 -10 11 -10 2 0 4 5 4 10 0 6 -5 10 -11 10 -5 0
-7 -4 -4 -10z"/>
<path d="M1385 1150 c4 -6 11 -8 16 -5 14 9 11 15 -7 15 -8 0 -12 -5 -9 -10z"/>
<path d="M1390 1000 c0 -13 5 -20 13 -17 6 2 12 10 12 17 0 7 -6 15 -12 18 -8
2 -13 -5 -13 -18z"/>
<path d="M1297 1003 c-13 -12 -7 -33 8 -33 8 0 15 9 15 20 0 20 -11 26 -23 13z"/>
<path d="M1070 2005 c0 -8 2 -15 4 -15 2 0 6 7 10 15 3 8 1 15 -4 15 -6 0 -10
-7 -10 -15z"/>
<path d="M471 1842 c-52 -45 -101 -124 -101 -165 0 -10 14 -32 30 -49 l31 -30
-46 -71 c-25 -39 -45 -64 -45 -56 0 8 -12 32 -26 53 -22 33 -25 45 -20 85 5
43 5 45 -10 26 -36 -44 -69 -131 -69 -178 0 -41 4 -53 28 -73 15 -13 35 -24
44 -24 11 0 14 -6 9 -22 -3 -13 -11 -49 -17 -80 l-11 -57 -49 41 c-40 33 -51
49 -56 82 l-6 41 -13 -35 c-7 -19 -13 -64 -13 -100 -1 -79 22 -130 65 -145 16
-5 30 -10 32 -11 2 -1 -14 -18 -35 -37 -36 -34 -37 -36 -20 -54 9 -11 17 -23
17 -28 0 -15 -42 29 -61 65 l-20 35 6 -65 c7 -78 43 -162 79 -186 20 -13 39
-15 76 -11 36 4 50 3 50 -6 0 -7 13 -38 29 -69 l28 -58 -64 0 c-58 0 -66 3
-103 36 l-40 36 11 -30 c19 -56 74 -136 108 -159 42 -28 97 -30 131 -3 l25 19
56 -56 57 -57 -52 -18 c-64 -22 -98 -22 -137 -2 -29 15 -30 14 -20 -4 25 -46
115 -112 173 -126 38 -9 95 17 110 48 6 15 14 26 17 26 12 0 156 -79 145 -80
-7 0 -36 -18 -65 -41 -51 -38 -57 -40 -104 -34 l-50 6 35 -22 c107 -67 213
-75 262 -20 15 17 28 38 28 46 0 21 14 19 34 -4 22 -24 16 -36 -35 -61 -21
-11 -39 -24 -39 -28 0 -5 11 -19 25 -32 l24 -23 26 31 c45 53 60 51 126 -14
l59 -58 59 58 c66 65 82 67 126 14 21 -25 28 -28 41 -17 8 7 19 20 25 30 8 15
3 22 -30 39 -51 25 -57 37 -35 61 20 23 34 25 34 4 0 -8 12 -29 28 -45 49 -55
141 -50 253 15 l44 26 -50 -7 c-48 -6 -53 -4 -105 35 -30 23 -59 41 -65 41 -5
0 24 18 65 40 l75 40 19 -26 c29 -40 78 -57 126 -44 46 12 112 61 149 109 l26
34 -32 -16 c-41 -21 -75 -21 -140 1 l-51 18 56 56 57 57 24 -20 c28 -23 81
-25 120 -5 42 22 95 98 116 166 8 24 7 23 -29 -8 -33 -29 -43 -32 -100 -32
l-63 0 28 60 c16 33 29 64 29 69 0 6 20 8 49 4 40 -4 55 -2 79 15 38 27 68
100 76 182 6 64 6 65 -10 35 -21 -38 -44 -65 -57 -65 -6 0 -3 8 6 18 16 17 15
20 -18 52 -39 38 -43 50 -17 50 67 2 103 132 68 245 l-13 40 -7 -42 c-6 -32
-17 -50 -56 -82 l-48 -40 -11 57 c-6 31 -14 67 -17 80 -5 16 -2 22 9 22 9 0
29 11 44 24 24 21 28 32 27 73 0 51 -35 138 -72 183 l-20 25 11 -43 c10 -39 9
-46 -18 -96 -16 -30 -32 -53 -35 -51 -4 2 -23 31 -44 65 l-38 61 25 19 c14 11
28 31 31 45 10 41 -28 114 -91 172 -61 57 -78 63 -43 15 20 -27 21 -36 14
-102 l-9 -72 -30 23 c-31 25 -26 10 9 -30 l21 -23 -30 6 c-20 4 -45 1 -70 -9
-25 -11 -50 -14 -74 -10 l-36 7 19 -21 c11 -12 40 -35 64 -51 55 -37 107 -40
147 -9 31 25 29 27 75 -63 33 -64 37 -76 16 -59 -7 6 -38 10 -68 10 -38 -1
-63 4 -83 17 l-28 18 24 -42 c13 -24 41 -59 63 -79 36 -33 42 -35 92 -31 l53
5 10 -46 c11 -51 19 -101 16 -101 0 0 -19 9 -41 19 -22 11 -114 95 -208 190
-93 93 -173 168 -178 165 -4 -3 -8 -20 -8 -37 0 -29 26 -58 230 -262 126 -126
230 -233 230 -236 0 -4 -24 -10 -54 -13 -30 -4 -67 -11 -82 -15 -25 -7 -20 -9
36 -16 118 -14 128 5 -150 -273 l-251 -252 -332 0 -331 0 -250 250 c-138 137
-248 252 -244 255 3 3 41 12 84 19 l79 12 -66 12 c-36 7 -73 12 -82 12 -9 0
-17 3 -17 7 0 4 91 99 202 210 l203 203 -49 0 -49 0 -108 -109 c-87 -88 -153
-141 -174 -141 -3 0 5 47 16 101 l10 46 53 -5 c50 -4 56 -2 92 31 22 20 50 55
63 79 l24 42 -24 -16 c-15 -9 -54 -17 -96 -20 l-71 -4 25 51 c14 27 32 58 40
67 15 16 17 16 41 -2 13 -11 36 -20 51 -19 25 1 25 1 -5 10 -17 5 -37 16 -44
25 -11 13 -9 19 13 41 19 20 35 26 64 25 31 -1 35 1 20 9 -10 6 -32 7 -50 4
l-32 -7 23 24 c29 32 28 43 -2 23 l-23 -16 -7 72 c-7 65 -5 75 14 101 12 16
20 31 18 33 -2 2 -27 -17 -57 -43z m7 -34 c-1 -13 1 -44 6 -69 13 -78 -32
-142 -74 -104 -22 20 -27 73 -9 108 11 21 69 87 76 87 2 0 3 -10 1 -22z m1358
-60 c19 -37 18 -81 -4 -109 -23 -28 -45 -21 -67 21 -13 24 -15 46 -9 101 l7
70 29 -28 c16 -15 36 -40 44 -55z m-96 -135 l25 -24 -25 -21 c-33 -26 -88 -19
-137 18 l-36 27 47 12 c25 7 49 15 53 19 11 10 46 -4 73 -31z m-1460 -52 c0
-9 11 -32 25 -51 26 -36 31 -72 15 -114 -12 -31 -29 -33 -64 -5 -22 17 -26 28
-26 70 0 52 26 132 41 123 5 -3 9 -13 9 -23z m1714 -14 c24 -64 21 -123 -9
-152 -31 -32 -53 -32 -65 1 -16 42 -11 78 15 114 14 19 25 44 25 57 0 36 16
27 34 -20z m-89 -152 c29 -79 55 -195 54 -240 0 -26 -2 -27 -9 -10 -5 11 -9
34 -9 51 -1 49 -39 183 -71 254 -21 45 -24 57 -11 40 11 -14 32 -56 46 -95z
m-1544 34 c-17 -35 -37 -104 -47 -154 -23 -130 -35 -165 -28 -88 2 34 14 94
25 134 20 73 68 184 75 176 2 -2 -9 -33 -25 -68z m151 -21 c-35 -61 -93 -84
-143 -58 -18 10 -18 13 -4 40 21 40 41 49 107 48 l57 -1 -17 -29z m1330 21
c10 -5 25 -23 33 -39 14 -27 14 -30 -4 -40 -42 -22 -82 -12 -123 30 -21 23
-38 44 -38 48 0 12 111 12 132 1z m-1631 -200 c39 -36 49 -53 49 -77 0 -18 0
-35 1 -39 2 -19 -30 -26 -59 -14 -38 16 -62 64 -62 124 0 51 11 91 18 66 2 -7
26 -35 53 -60z m1887 -16 c-5 -61 -31 -103 -72 -117 -39 -14 -60 10 -51 58 5
27 20 47 56 77 27 22 49 48 49 57 1 15 2 14 11 -2 6 -10 9 -43 7 -73z m-1896
-278 c26 -7 108 -85 108 -104 0 -5 -13 -14 -29 -21 -30 -12 -64 -7 -90 14 -20
16 -61 106 -61 135 l0 24 23 -21 c12 -11 34 -24 49 -27z m1884 -50 c-31 -69
-76 -96 -125 -75 -17 7 -31 16 -31 21 0 20 83 98 110 104 15 3 36 15 46 27
l19 20 3 -21 c2 -12 -8 -46 -22 -76z m-1703 -157 c74 -145 161 -242 300 -333
64 -42 78 -59 20 -24 -103 61 -172 122 -246 213 -46 56 -127 202 -127 227 0
18 4 12 53 -83z m1496 10 c-77 -153 -189 -277 -314 -347 -46 -26 -33 -15 56
49 85 62 180 177 236 288 26 51 49 89 51 83 2 -5 -11 -38 -29 -73z m-1451 -34
c-3 -16 -7 -13 -21 13 -23 43 -21 52 4 26 12 -11 19 -29 17 -39z m1407 15
c-13 -24 -19 -29 -26 -18 -5 9 -1 21 13 36 28 30 33 23 13 -18z m-1353 -46
c24 -23 37 -53 24 -53 -2 0 -11 -3 -20 -6 -15 -6 -46 41 -46 71 0 22 10 19 42
-12z m1308 -23 c-15 -36 -23 -42 -44 -34 -23 9 -20 24 11 56 33 35 52 23 33
-22z m-1479 -2 c50 2 60 -1 89 -28 36 -33 35 -45 -2 -73 -48 -36 -128 4 -169
85 l-20 39 23 -12 c13 -7 48 -12 79 -11z m1709 3 c0 -24 -69 -97 -103 -110
-34 -13 -42 -12 -73 2 -41 20 -44 44 -9 77 21 20 38 25 92 27 36 2 68 5 71 8
9 8 22 6 22 -4z m-1453 -63 c24 -23 33 -41 33 -65 0 -18 -4 -33 -9 -33 -5 0
-30 23 -56 52 -43 48 -45 53 -29 65 24 17 23 18 61 -19z m1167 19 c16 -12 14
-17 -29 -65 -26 -29 -51 -52 -56 -52 -5 0 -9 14 -9 32 0 22 10 42 32 65 36 37
38 38 62 20z m-1074 -112 c33 -34 33 -36 16 -53 -16 -16 -18 -16 -42 11 -23
27 -33 77 -16 77 4 0 23 -16 42 -35z m970 11 c0 -27 -35 -76 -55 -76 -29 0
-26 33 7 67 38 39 48 41 48 9z m-854 -133 c-3 -3 -66 30 -85 43 -2 2 -1 11 3
20 6 15 13 12 46 -21 22 -21 38 -40 36 -42z m774 53 c0 -7 -17 -21 -37 -31
-60 -30 -60 -30 -19 13 38 39 56 45 56 18z m-607 7 c-7 -2 -13 -11 -13 -19 0
-8 6 -14 13 -15 10 0 10 -2 0 -6 -7 -2 -13 -11 -13 -18 0 -7 6 -16 13 -18 6
-3 2 -6 -10 -6 -21 -1 -23 4 -23 44 0 40 2 45 23 44 12 0 16 -3 10 -6z m58
-15 l2 -23 4 23 c7 34 23 16 23 -26 0 -45 17 -32 23 18 3 27 4 25 3 -10 -1
-34 -5 -46 -19 -48 -10 -2 -21 5 -26 20 l-10 23 0 -22 c-1 -16 -7 -23 -21 -23
-17 0 -20 7 -20 45 0 38 3 45 20 45 14 0 20 -7 21 -22z m92 15 c-7 -2 -13 -20
-13 -39 0 -49 26 -45 34 6 7 46 21 52 30 13 4 -16 10 -37 13 -48 5 -18 4 -18
-11 -6 -13 11 -20 11 -28 3 -7 -7 -20 -12 -30 -12 -15 0 -18 8 -18 45 0 36 3
45 18 44 10 0 12 -3 5 -6z m87 -40 l-5 -48 -3 40 c-2 22 -9 43 -15 47 -8 5 -5
8 8 8 18 0 20 -5 15 -47z m27 -20 c-2 -16 -4 -5 -4 22 0 28 2 40 4 28 2 -13 2
-35 0 -50z m61 45 c6 -23 6 -23 13 2 l6 25 11 -25 c11 -25 11 -25 11 -2 1 14
5 20 12 17 10 -7 10 -60 1 -79 -3 -5 -11 2 -18 15 l-13 24 -2 -25 c-1 -18 -3
-20 -6 -7 -4 17 -5 17 -17 1 -20 -27 -46 -11 -46 29 0 19 3 37 7 40 14 14 35
6 41 -15z m-655 -15 c26 -13 27 -15 13 -41 -31 -61 -106 -67 -180 -15 -51 36
-54 48 -13 49 17 1 50 8 72 17 41 16 60 15 108 -10z m1132 6 c31 -12 65 -19
76 -16 32 8 22 -11 -22 -43 -76 -54 -147 -52 -182 8 l-19 32 44 20 c23 11 44
20 45 20 1 0 27 -9 58 -21z m-451 -101 c-10 -13 -55 -58 -98 -101 l-80 -78
-93 93 c-51 51 -93 96 -93 100 0 5 86 8 192 8 l191 0 -19 -22z m-420 -34 c21
-8 20 -32 -4 -71 -30 -50 -88 -58 -187 -28 -28 9 -30 25 -4 25 11 0 41 18 66
40 46 40 86 50 129 34z m621 -34 c25 -22 55 -40 66 -40 31 0 22 -15 -17 -29
-89 -32 -169 -8 -188 58 -11 39 1 51 56 51 29 0 47 -9 83 -40z m-184 -81 c19
-16 20 -18 4 -10 -34 17 -51 31 -39 31 7 0 22 -9 35 -21z"/>
<path d="M202 844 c10 -10 20 -16 22 -13 3 3 -5 11 -17 18 -21 13 -21 12 -5
-5z"/>
<path d="M2010 860 c-9 -6 -10 -10 -3 -10 6 0 15 5 18 10 8 12 4 12 -15 0z"/>
<path d="M2026 845 c-11 -8 -15 -15 -9 -15 6 0 16 7 23 15 16 19 11 19 -14 0z"/>
<path d="M970 395 c0 -19 5 -35 10 -35 6 0 10 16 10 35 0 19 -4 35 -10 35 -5
0 -10 -16 -10 -35z"/>
<path d="M1237 423 c-4 -3 -7 -19 -7 -35 0 -35 23 -34 28 1 4 25 -10 46 -21
34z"/>
<path d="M528 353 c7 -3 16 -2 19 1 4 3 -2 6 -13 5 -11 0 -14 -3 -6 -6z"/>
<path d="M1698 353 c7 -3 16 -2 19 1 4 3 -2 6 -13 5 -11 0 -14 -3 -6 -6z"/>
<path d="M1106 285 c-3 -8 -12 -15 -21 -15 -17 0 -20 -16 -4 -26 6 -3 9 -14 6
-23 -3 -13 4 -16 33 -16 29 0 36 3 33 16 -3 9 0 20 6 23 16 10 13 26 -4 26 -9
0 -18 7 -21 15 -4 8 -10 15 -14 15 -4 0 -10 -7 -14 -15z"/>
<path d="M805 210 c-3 -6 1 -7 9 -4 18 7 21 14 7 14 -6 0 -13 -4 -16 -10z"/>
<path d="M839 203 c-13 -16 -12 -17 4 -4 16 13 21 21 13 21 -2 0 -10 -8 -17
-17z"/>
<path d="M1380 216 c0 -2 8 -10 18 -17 15 -13 16 -12 3 4 -13 16 -21 21 -21
13z"/>
<path d="M1278 1751 c-3 -37 0 -45 33 -77 26 -26 51 -39 85 -45 26 -5 49 -8
50 -6 2 2 -34 40 -80 86 l-84 83 -4 -41z"/>
<path d="M839 1680 l-24 -19 37 -1 c31 0 35 3 31 20 -7 25 -15 25 -44 0z"/>
<path d="M665 754 l-70 -33 119 -1 c66 0 117 2 115 3 -2 2 -24 17 -49 34 l-45
30 -70 -33z"/>
<path d="M1495 758 c-4 -16 -5 -32 -2 -34 2 -3 36 -4 73 -2 l69 3 -67 32 -67
31 -6 -30z"/>
<path d="M800 650 c-17 -32 -8 -74 18 -85 12 -5 22 -17 22 -27 0 -10 -9 -18
-22 -20 -27 -4 -31 -31 -5 -36 35 -7 65 7 71 33 10 39 -3 73 -31 79 -31 8 -28
40 5 44 37 6 27 32 -13 32 -24 0 -37 -6 -45 -20z"/>
<path d="M910 651 c-16 -31 -13 -137 6 -155 23 -24 64 -21 64 4 0 11 -6 20
-14 20 -17 0 -26 22 -26 60 0 38 9 60 26 60 8 0 14 7 14 15 0 23 -57 20 -70
-4z"/>
<path d="M1000 575 c0 -88 1 -95 20 -95 17 0 20 7 20 40 0 22 5 40 10 40 6 0
10 -18 10 -40 0 -33 3 -40 20 -40 19 0 20 7 20 95 0 88 -1 95 -20 95 -16 0
-20 -7 -20 -35 0 -19 -4 -35 -10 -35 -5 0 -10 16 -10 35 0 28 -4 35 -20 35
-19 0 -20 -7 -20 -95z"/>
<path d="M1129 643 c-15 -38 -7 -142 12 -154 22 -14 56 -11 73 7 20 19 22 144
4 162 -7 7 -27 12 -45 12 -27 0 -35 -5 -44 -27z m61 -69 c0 -30 -4 -54 -10
-54 -6 0 -10 27 -10 61 0 37 4 58 10 54 6 -3 10 -31 10 -61z"/>
<path d="M1262 658 c-16 -16 -16 -150 0 -166 7 -7 24 -12 38 -12 41 0 50 17
50 95 0 42 -5 76 -12 83 -15 15 -61 15 -76 0z m48 -84 c0 -30 -4 -54 -10 -54
-6 0 -10 27 -10 61 0 37 4 58 10 54 6 -3 10 -31 10 -61z"/>
<path d="M1370 575 l0 -96 37 3 c27 2 39 8 41 21 2 10 -3 17 -12 17 -19 0 -27
30 -24 95 3 45 1 50 -19 53 -22 3 -23 1 -23 -93z"/>
</g>
</svg>
